# xmcd
#
# Track frame offsets: 
#        150
#        9496
#        22026
#        32614
#        43690
#        56407
#        70142
#        81450
#        90012
#        102542
#        111304
#        122875
#        132898
#        144906
#        157415
#        169061
#        180261
#        191819
#
# Disc length: 2763 seconds
#
# Revision: 0
# Processed by: cddbd v1.5.2PL0 Copyright (c) Steve Scherf et al.
# Submitted via: ExactAudioCopy v0.99pb4
#
DISCID=f30ac912
DTITLE=Buddy Alan Owens - The Best of Buddy Alan Owens
DYEAR=2007
DGENRE=Country
TTITLE0=Let The World Keep On A Turnin'
TTITLE1=Lodi
TTITLE2=Big Mama's Medicine Show
TTITLE3=Down In New Orleans
TTITLE4=A Whole Lot Of Somethin'
TTITLE5=Cowboy Convention
TTITLE6=Lookin' Out My Back Door
TTITLE7=I'm On The Road To Memphis
TTITLE8=I Will Drink Your Wine
TTITLE9=Too Old To Cut The Mustard
TTITLE10=Things
TTITLE11=Move It On Over
TTITLE12=Summer Afternoons
TTITLE13=All Around Cowboy Of 1964
TTITLE14=Chains
TTITLE15=Here In Frisco
TTITLE16=Another Saturday Night
TTITLE17=Ride 'Em Cowboy
EXTD=
EXTT0=
EXTT1=
EXTT2=
EXTT3=
EXTT4=
EXTT5=
EXTT6=
EXTT7=
EXTT8=
EXTT9=
EXTT10=
EXTT11=
EXTT12=
EXTT13=
EXTT14=
EXTT15=
EXTT16=
EXTT17=
PLAYORDER=
